<svg width="554" height="168" viewBox="0 0 554 168" fill="none" xmlns="http://www.w3.org/2000/svg">
<g clip-path="url(#clip0_756_94)">
<path d="M28.17 0.0896024C26.5 -0.330398 24.8 0.689602 24.38 2.3596L0.0900296 99.6496C-0.32997 101.32 0.69003 103.02 2.36003 103.44C2.61003 103.5 3.96003 103.53 4.21003 103.53C5.61003 103.53 6.88003 102.58 7.24003 101.16L8.31003 96.6596L21.31 164.61C21.31 164.61 22.88 167.83 26.1 166.88C29.32 165.93 27.99 160.82 27.99 160.82L14.37 71.2796L23.91 31.2696L24.5 47.2896C24.5 47.2896 24.57 49.7796 26.99 49.6996C29.4 49.6296 29.9 48.7796 30.04 46.9996C30.17 45.3296 30.49 7.9396 30.52 3.3596C30.64 1.8696 29.67 0.469602 28.17 0.0896024Z" fill="#E20E18"/>
<path d="M73.99 99.6494L49.71 2.36937C49.29 0.699368 47.6 -0.320632 45.92 0.099368C44.57 0.439368 43.6501 1.59937 43.5601 2.90937C43.5501 3.05937 43.5501 3.21937 43.5601 3.36937C43.6001 7.94937 43.9101 45.3394 44.0401 47.0094C44.1801 48.7894 44.68 49.6394 47.09 49.7094C49.5001 49.7794 49.5801 47.2994 49.5801 47.2994L50.17 31.2794L59.71 71.2894L46.0801 160.829C46.0801 160.829 44.7501 165.939 47.9701 166.889C51.1901 167.839 52.76 164.619 52.76 164.619L65.7601 96.6694L66.8301 101.169C67.1801 102.589 68.4601 103.539 69.8601 103.539C70.1101 103.539 71.45 103.509 71.71 103.449C73.39 103.019 74.41 101.319 73.99 99.6494Z" fill="#E20E18"/>
<path d="M161.36 18.6796L152.73 33.8596L128.51 33.8496L120.44 67.1897L150.23 67.2096L141.6 81.6096L106.2 81.5896C105.21 81.5896 104.3 81.1997 103.48 80.4097C102.42 79.5197 101.9 78.3096 101.91 76.7696C101.92 76.2596 101.98 75.7596 102.11 75.2796L113.37 24.9396C113.81 23.1296 114.81 21.5896 116.36 20.3296C117.77 19.1996 119.12 18.6396 120.41 18.6396L161.36 18.6796Z" fill="white"/>
<path d="M210.15 81.6192L168.55 81.5992L174.86 70.2492C175.64 68.8392 177.1 67.9792 178.68 67.9792L190.44 67.9892L187.12 43.8592L166.86 79.3592C166.07 80.7392 164.63 81.5892 163.06 81.5892L147.83 81.5792L183.63 18.6592L201.44 18.6692L210.15 81.6192Z" fill="white"/>
<path d="M552.73 81.6192L511.13 81.5992L517.43 70.2692C518.22 68.8492 519.69 67.9792 521.28 67.9792L533.02 67.9892L529.7 43.8592L509.45 79.3492C508.66 80.7392 507.2 81.5992 505.63 81.5892L490.42 81.5792L526.22 18.6592L544.03 18.6692L552.73 81.6192Z" fill="white"/>
<path d="M258.54 81.6194L211.69 81.5894L225.21 18.6494L241.25 18.6594L230.6 67.9794L251.08 67.9894C252.73 67.9894 254.19 69.0294 254.73 70.5894L258.54 81.6194Z" fill="white"/>
<path d="M337.06 18.6796L332.34 31.3796C331.6 32.8996 330.07 33.8596 328.41 33.8596L308.84 33.8496C307.38 33.8496 306.1 34.8496 305.75 36.2696L304.4 43.3196L327.58 43.3297C332.77 43.4497 332.11 47.9296 331.74 49.7096C331.64 50.1796 329.95 58.7196 326.38 75.3096C326.01 77.1196 325.07 78.6596 323.55 79.9196C322.17 81.0496 320.87 81.6096 319.68 81.6096L279.79 81.5896L282.2 71.3997C282.68 69.3797 284.44 67.1796 286.47 67.1796L310.29 67.1897C311.23 67.1897 312.04 66.5397 312.24 65.6197L314.64 56.1596L291.49 56.1497C290.54 56.1497 289.65 55.7597 288.8 54.9697C287.78 54.0797 287.28 52.8697 287.3 51.3297C287.3 50.8497 289.09 41.5296 292.66 24.9396C293.06 23.1296 294.02 21.5896 295.52 20.3296C296.86 19.1996 298.16 18.6396 299.39 18.6396L337.06 18.6796Z" fill="white"/>
<path d="M384.95 18.6894L382.79 28.7794C382.35 30.8394 380.56 32.3094 378.5 32.3094L367.79 32.2994L357.87 78.0894C357.42 80.1494 355.64 81.6094 353.58 81.6094L341.06 81.5994L351.74 32.2794L337.47 32.2694L340.39 18.6494L384.95 18.6894Z" fill="white"/>
<path d="M431.14 18.4895L428.56 29.7495C428.11 31.7695 426.33 33.2095 424.27 33.2095L402.44 33.1995L399.7 43.4495L425.36 43.4595L423.11 55.8795L397.45 55.8695L394.71 66.8895L420.09 66.9095L418.06 78.1095C417.64 80.1595 415.84 81.6295 413.76 81.6295L375.8 81.6095L389.71 18.4795L431.14 18.4895Z" fill="white"/>
<path d="M480.04 23.4899C480.03 24.0399 479.97 24.5299 479.85 24.9699L467.64 81.6099L451.6 81.5999L462.25 32.2799L449.77 32.2699L439.88 78.0599C439.44 80.1199 437.65 81.5899 435.59 81.5799L423.13 81.5699L436.65 18.6299L475.87 18.6499C476.8 18.6499 477.68 19.0399 478.53 19.8299C479.55 20.7399 480.05 21.9599 480.04 23.4899Z" fill="white"/>
<path d="M501.81 18.6799L489 78.0899C488.56 80.1499 486.77 81.6199 484.71 81.6199L472.26 81.6099L485.02 22.1999C485.46 20.1399 487.25 18.6699 489.31 18.6699L501.81 18.6799Z" fill="white"/>
<path d="M290.05 18.6799L276.48 81.6199L260.5 81.6099L273.26 22.1999C273.7 20.1399 275.49 18.6699 277.55 18.6699L290.05 18.6799Z" fill="white"/>
<path d="M222.46 147.89L178.69 147.86L191.32 89.0596L206.31 89.0696L196.36 135.14L215.49 135.15C217.03 135.15 218.39 136.13 218.9 137.58L222.46 147.89Z" fill="white"/>
<path d="M378.88 147.889L339.5 147.869L345.47 137.139C346.21 135.799 347.61 134.969 349.11 134.969L360.23 134.979L357.08 112.139L337.91 145.739C337.16 147.059 335.78 147.869 334.29 147.859L319.89 147.849L353.78 88.2793L370.64 88.2893L378.88 147.889Z" fill="white"/>
<path d="M140.41 93.6594C140.4 94.1994 139.06 100.539 136.36 112.679C135.97 114.369 135.07 115.799 133.66 116.979C132.39 118.029 131.16 118.559 129.96 118.559C130.85 118.559 131.69 118.849 132.5 119.419C133.58 120.149 134.12 121.169 134.1 122.479C134.1 122.829 132.69 129.349 129.88 142.019C129.49 143.739 128.62 145.139 127.26 146.219C125.86 147.329 124.6 147.889 123.48 147.889L86.09 147.869L99 89.1494L136.44 89.1694C137.33 89.1694 138.17 89.5394 138.98 90.2694C139.95 91.0994 140.42 92.2294 140.41 93.6594ZM118.67 123.419L106.76 123.409L104.15 135.159L116.06 135.169L118.67 123.419ZM123.43 101.869L111.52 101.859L108.91 113.609L120.82 113.619L123.43 101.869Z" fill="white"/>
<path d="M313.99 89.1794L279.76 147.889L262.76 147.879L254.45 89.1494L271.45 89.1594L276.43 124.379L296.98 89.1694L313.99 89.1794Z" fill="white"/>
<path d="M170.82 147.889L132.49 147.769L145.4 89.0488H186.8L175.42 144.109C174.99 146.309 173.06 147.899 170.82 147.889ZM170.53 101.769L160.74 101.759C159.03 101.759 157.56 102.939 157.19 104.609L150.44 135.059L160.93 135.079C162.32 135.079 163.53 134.109 163.83 132.749L170.53 101.769Z" fill="white"/>
<path d="M251.89 89.0891L239.21 147.889L224.28 147.879L236.2 92.3791C236.61 90.4491 238.28 89.0791 240.21 89.0791L251.89 89.0891Z" fill="white"/>
<path d="M330.29 89.0891L317.61 147.889L302.68 147.879L314.6 92.3791C315.01 90.4491 316.68 89.0791 318.61 89.0791L330.29 89.0891Z" fill="white"/>
<path d="M385.62 147.95C384.56 147.95 383.93 147.41 383.69 146.3C383.64 146.06 383.62 145.8 383.63 145.52L386.47 122.56H393.54L391.02 142.66H397L399.52 122.56H406.6L404.06 142.66H410.04L412.56 122.56H419.64L416.78 145.49C416.7 146.11 416.39 146.68 415.86 147.18C415.32 147.68 414.74 147.94 414.13 147.94H385.62V147.95Z" fill="#B5B6B8"/>
<path d="M420.95 147.95C419.9 147.95 419.26 147.41 419.02 146.3C418.97 146.07 418.95 145.8 418.96 145.52L421.49 125.02C421.56 124.39 421.87 123.82 422.39 123.33C422.94 122.83 423.52 122.57 424.14 122.57H439.64C440.69 122.57 441.33 123.11 441.57 124.22C441.63 124.49 441.65 124.75 441.63 124.99L439.06 145.5C438.99 146.15 438.68 146.72 438.14 147.19C437.59 147.7 437.01 147.95 436.41 147.95H420.95ZM426.34 142.66H432.33L434.2 127.85H428.22L426.34 142.66Z" fill="#B5B6B8"/>
<path d="M455.52 147.95L450.95 133.25H455.79L456.48 127.85H450.49L447.97 147.95H440.93L444.08 122.56H461.91C462.96 122.56 463.6 123.1 463.84 124.21C463.9 124.47 463.92 124.74 463.9 124.98L462.69 134.8C462.61 135.42 462.3 135.99 461.77 136.49C461.23 136.99 460.65 137.25 460.04 137.25H458.42L461.76 147.94H455.52V147.95Z" fill="#B5B6B8"/>
<path d="M474.94 147.95L471.59 139.23L471.34 139.26L470.25 147.95H463.21L466.36 122.56H473.43L472.35 131.22L472.59 131.31L478.15 122.56H486.4L478.36 135.25L483.23 147.95H474.94Z" fill="#B5B6B8"/>
<path d="M487.79 147.95C486.73 147.95 486.1 147.41 485.86 146.3C485.81 146.06 485.79 145.8 485.8 145.52L488.33 125.02C488.4 124.39 488.71 123.82 489.23 123.33C489.78 122.83 490.36 122.57 490.98 122.57H506.48C507.53 122.57 508.17 123.11 508.41 124.22C508.47 124.48 508.49 124.74 508.47 125L505.9 145.51C505.83 146.16 505.52 146.72 504.98 147.2C504.43 147.71 503.85 147.96 503.25 147.96H487.79V147.95ZM493.18 142.66H499.16L501.03 127.85H495.04L493.18 142.66Z" fill="#B5B6B8"/>
<path d="M510.07 147.95C509.01 147.95 508.38 147.41 508.14 146.3C508.09 146.06 508.07 145.8 508.08 145.52L510.92 122.56H517.99L515.47 142.66H521.45L523.97 122.56H531.05L527.86 147.95H510.07Z" fill="#B5B6B8"/>
<path d="M538.21 158.28V127.83H532.5V122.56H550.05V127.83H544.36V163.41L538.21 158.28Z" fill="#B5B6B8"/>
<path d="M436.18 89.6797L435.23 96.1597H421.3L420.42 102.16H431.74C432.93 102.16 433.65 102.84 433.88 104.21C433.94 104.54 433.95 104.85 433.92 105.16L432.28 116.64C432.18 117.44 431.81 118.13 431.19 118.71C430.56 119.33 429.9 119.64 429.22 119.64H412.71L411.04 113.16H424.93L425.81 107.16H414.47C413.28 107.16 412.57 106.48 412.33 105.11C412.28 104.8 412.27 104.48 412.31 104.16L413.95 92.6797C414.06 91.8997 414.41 91.2097 415.02 90.6097C415.65 89.9897 416.31 89.6797 417.01 89.6797H436.18Z" fill="#B5B6B8"/>
<path d="M459.97 89.6797L459.03 96.1597H452.07L448.67 119.63H440.82L444.22 96.1597H437.24L438.19 89.6797H459.97Z" fill="#B5B6B8"/>
<path d="M483.29 91.7299C483.35 92.0599 483.36 92.3699 483.33 92.6799L481.69 104.16C481.58 104.92 481.22 105.61 480.6 106.23C479.97 106.85 479.31 107.16 478.63 107.16H477.1L480.3 119.64H473.32L468.88 102.16H474.11L474.99 96.1599H468.88L465.48 119.63H457.67L461.97 89.6699H481.14C482.34 89.6799 483.05 90.3599 483.29 91.7299Z" fill="#B5B6B8"/>
<path d="M507.56 89.6797L504.02 96.1597H492.68L491.8 102.16H503.12L502.43 107.16H491.09L490.21 113.16H504.15L500.61 119.64H481.48L485.78 89.6797H507.56Z" fill="#B5B6B8"/>
<path d="M530.48 89.6797L526.94 96.1597H515.6L514.72 102.16H526.04L525.35 107.16H514L513.12 113.16H527.05L523.51 119.64H504.38L508.68 89.6797H530.48Z" fill="#B5B6B8"/>
<path d="M553.4 89.6797L552.45 96.1597H545.49L542.09 119.63H534.24L537.64 96.1597H530.66L531.6 89.6797H553.4Z" fill="#B5B6B8"/>
</g>
<defs>
<clipPath id="clip0_756_94">
<rect width="553.4" height="167.06" fill="white"/>
</clipPath>
</defs>
</svg>
